<svg width="25" height="25" viewBox="0 0 25 25" fill="none" xmlns="http://www.w3.org/2000/svg">
<path fill-rule="evenodd" clip-rule="evenodd" d="M12.9631 0.568176C6.33685 0.568176 0.963867 5.96171 0.963867 12.6165C0.963867 17.9385 4.40186 22.4541 9.17111 24.0474C9.77111 24.1581 9.99011 23.7861 9.99011 23.4668C9.99011 23.1807 9.9796 22.4232 9.9736 21.418C6.63535 22.1461 5.93112 19.8029 5.93112 19.8029C5.38587 18.4114 4.59912 18.0409 4.59912 18.0409C3.50937 17.2932 4.68161 17.3083 4.68161 17.3083C5.88536 17.3933 6.5191 18.5499 6.5191 18.5499C7.5901 20.3909 9.32787 19.8593 10.0119 19.5506C10.1206 18.7721 10.4311 18.2412 10.7739 17.94C8.10911 17.6358 5.30786 16.6027 5.30786 11.9863C5.30786 10.6708 5.77512 9.59557 6.54312 8.75299C6.41937 8.44804 6.00763 7.22371 6.66013 5.56491C6.66013 5.56491 7.66811 5.24112 9.96011 6.79977C10.9179 6.53247 11.9439 6.39919 12.9646 6.39392C13.9839 6.39919 15.0106 6.53247 15.9691 6.79977C18.2596 5.24112 19.2654 5.56491 19.2654 5.56491C19.9201 7.22371 19.5084 8.44804 19.3846 8.75299C20.1541 9.59557 20.6184 10.6708 20.6184 11.9863C20.6184 16.614 17.8126 17.6328 15.1396 17.931C15.5701 18.3029 15.9541 19.0379 15.9541 20.162C15.9541 21.7727 15.9391 23.0715 15.9391 23.4668C15.9391 23.7891 16.1551 24.1641 16.7641 24.0459C21.5289 22.4496 24.9639 17.937 24.9639 12.6165C24.9639 5.96171 19.5909 0.568176 12.9631 0.568176Z" fill="#FFE8C6"/>
</svg>
