<svg width="25" height="25" viewBox="0 0 25 25" fill="none" xmlns="http://www.w3.org/2000/svg">
<path d="M17.8364 8.63192C17.7322 8.36224 17.5728 8.11735 17.3683 7.91304C17.1637 7.70872 16.9187 7.54952 16.6489 7.44568C16.2774 7.30808 15.885 7.23536 15.4889 7.23068C14.8301 7.20068 14.6326 7.19317 12.9639 7.19317C11.2951 7.19317 11.0976 7.20068 10.4389 7.23068C10.0423 7.23521 9.64951 7.30794 9.27762 7.44568C9.00793 7.5498 8.76304 7.70927 8.55873 7.91379C8.35442 8.11832 8.19522 8.36338 8.09137 8.63317C7.95378 9.00467 7.88105 9.39705 7.87637 9.79317C7.84637 10.4519 7.83887 10.6494 7.83887 12.3182C7.83887 13.9869 7.84637 14.1844 7.87637 14.8432C7.88091 15.2397 7.95364 15.6325 8.09137 16.0044C8.1955 16.2741 8.35496 16.519 8.55949 16.7233C8.76402 16.9276 9.00907 17.0868 9.27887 17.1907C9.65036 17.3283 10.0427 17.401 10.4389 17.4057C11.0976 17.4357 11.2951 17.4419 12.9639 17.4419C14.6326 17.4419 14.8301 17.4357 15.4889 17.4044C15.8853 17.4003 16.2782 17.328 16.6501 17.1907C16.9198 17.0865 17.1647 16.9271 17.369 16.7226C17.5733 16.518 17.7325 16.273 17.8364 16.0032C17.974 15.6317 18.0467 15.2393 18.0514 14.8432C18.0814 14.1844 18.0876 13.9869 18.0876 12.3182C18.0876 10.6494 18.0814 10.4519 18.0501 9.79317C18.046 9.3967 17.9737 9.00389 17.8364 8.63192V8.63192ZM12.9639 15.5282C12.329 15.5282 11.7084 15.3399 11.1805 14.9872C10.6526 14.6345 10.2412 14.1331 9.99822 13.5466C9.75526 12.96 9.69169 12.3146 9.81555 11.6919C9.93941 11.0693 10.2451 10.4973 10.6941 10.0484C11.143 9.59943 11.715 9.29371 12.3376 9.16985C12.9603 9.046 13.6057 9.10956 14.1923 9.35252C14.7788 9.59548 15.2802 10.0069 15.6329 10.5348C15.9856 11.0627 16.1739 11.6833 16.1739 12.3182C16.1739 13.1695 15.8357 13.986 15.2337 14.588C14.6317 15.19 13.8152 15.5282 12.9639 15.5282ZM16.3001 9.73192C16.1518 9.73192 16.0068 9.68794 15.8834 9.60553C15.7601 9.52312 15.664 9.40598 15.6072 9.26894C15.5504 9.13189 15.5356 8.98109 15.5645 8.83561C15.5935 8.69012 15.6649 8.55648 15.7698 8.45159C15.8747 8.34671 16.0083 8.27527 16.1538 8.24634C16.2993 8.2174 16.4501 8.23225 16.5871 8.28902C16.7242 8.34578 16.8413 8.44191 16.9237 8.56525C17.0061 8.68858 17.0501 8.83359 17.0501 8.98192C17.0501 9.18084 16.9711 9.3716 16.8305 9.51225C16.6898 9.65291 16.499 9.73192 16.3001 9.73192V9.73192ZM15.0476 12.3182C15.0476 12.7303 14.9254 13.1332 14.6964 13.4758C14.4675 13.8185 14.142 14.0856 13.7613 14.2433C13.3805 14.401 12.9616 14.4423 12.5574 14.3619C12.1531 14.2815 11.7819 14.083 11.4904 13.7916C11.199 13.5002 11.0006 13.1289 10.9202 12.7247C10.8398 12.3205 10.881 11.9015 11.0387 11.5208C11.1965 11.14 11.4635 10.8146 11.8062 10.5856C12.1489 10.3566 12.5517 10.2344 12.9639 10.2344C13.5165 10.2344 14.0465 10.454 14.4373 10.8447C14.8281 11.2355 15.0476 11.7655 15.0476 12.3182V12.3182ZM12.9639 0.318176C10.5905 0.318176 8.27042 1.02196 6.29703 2.34054C4.32364 3.65912 2.78557 5.53326 1.87732 7.72597C0.969067 9.91869 0.731427 12.3315 1.19445 14.6593C1.65747 16.987 2.80036 19.1252 4.47859 20.8035C6.15682 22.4817 8.29502 23.6246 10.6228 24.0876C12.9506 24.5506 15.3634 24.313 17.5561 23.4047C19.7488 22.4965 21.6229 20.9584 22.9415 18.985C24.2601 17.0116 24.9639 14.6915 24.9639 12.3182C24.9639 9.13558 23.6996 6.08333 21.4491 3.83289C19.1987 1.58246 16.1465 0.318176 12.9639 0.318176V0.318176ZM19.1764 14.8944C19.1658 15.4131 19.0673 15.9262 18.8851 16.4119C18.7246 16.827 18.4791 17.204 18.1644 17.5187C17.8497 17.8334 17.4727 18.0789 17.0576 18.2394C16.5723 18.4215 16.0596 18.5199 15.5414 18.5307C14.8739 18.5607 14.6614 18.5682 12.9639 18.5682C11.2664 18.5682 11.0539 18.5607 10.3864 18.5307C9.86813 18.5199 9.35545 18.4215 8.87012 18.2394C8.45502 18.0789 8.07804 17.8334 7.76334 17.5187C7.44864 17.204 7.20315 16.827 7.04262 16.4119C6.86057 15.9266 6.7621 15.4139 6.75137 14.8957C6.72137 14.2282 6.71387 14.0157 6.71387 12.3182C6.71387 10.6207 6.72137 10.4082 6.75137 9.74067C6.7617 9.22251 6.85975 8.70983 7.04137 8.22442C7.20189 7.80897 7.4475 7.43167 7.76244 7.11674C8.07737 6.80181 8.45467 6.5562 8.87012 6.39568C9.35553 6.21405 9.8682 6.116 10.3864 6.10568C11.0539 6.07568 11.2664 6.06818 12.9639 6.06818C14.6614 6.06818 14.8739 6.07568 15.5414 6.10568C16.0595 6.116 16.5722 6.21405 17.0576 6.39568C17.4728 6.55634 17.8499 6.80202 18.1646 7.11695C18.4793 7.43187 18.7247 7.8091 18.8851 8.22442C19.0672 8.70976 19.1656 9.22243 19.1764 9.74067C19.2064 10.4082 19.2139 10.6207 19.2139 12.3182C19.2139 14.0157 19.2064 14.2282 19.1764 14.8957V14.8944Z" fill="#FFE8C6"/>
</svg>
