<svg width="25" height="25" viewBox="0 0 25 25" fill="none" xmlns="http://www.w3.org/2000/svg">
<path fill-rule="evenodd" clip-rule="evenodd" d="M12.9604 0.318176C6.345 0.318176 0.963867 5.70081 0.963867 12.3181C0.963867 14.9424 1.81019 17.3762 3.24887 19.3517L1.75366 23.8101L6.36609 22.336C8.26317 23.5917 10.5271 24.3182 12.9673 24.3182C19.5827 24.3182 24.9639 18.9353 24.9639 12.3183C24.9639 5.70103 19.5827 0.318375 12.9673 0.318375H12.9604V0.318176ZM9.61029 6.41359C9.37761 5.85631 9.20126 5.83521 8.84875 5.82088C8.72873 5.81391 8.59497 5.80695 8.44669 5.80695C7.98809 5.80695 7.5086 5.94094 7.21939 6.2372C6.86689 6.59697 5.99228 7.43636 5.99228 9.15778C5.99228 10.8792 7.24765 12.544 7.41684 12.777C7.59319 13.0095 9.86426 16.5933 13.3905 18.0539C16.148 19.1968 16.9663 19.0908 17.5939 18.9568C18.5107 18.7593 19.6604 18.0818 19.9496 17.2637C20.2388 16.4452 20.2388 15.7468 20.154 15.5986C20.0694 15.4505 19.8365 15.3661 19.484 15.1895C19.1315 15.0131 17.4175 14.1665 17.0931 14.0536C16.7756 13.9338 16.4725 13.9762 16.2328 14.3148C15.8943 14.7875 15.5629 15.2673 15.2948 15.5564C15.0832 15.7822 14.7374 15.8105 14.4484 15.6904C14.0605 15.5283 12.9745 15.1471 11.6344 13.9549C10.5976 13.0308 9.89234 11.8811 9.68793 11.5354C9.48331 11.1828 9.66681 10.9779 9.82883 10.7876C10.0052 10.5688 10.1744 10.4137 10.3507 10.209C10.5271 10.0045 10.6258 9.89862 10.7387 9.65871C10.8587 9.42596 10.7739 9.18605 10.6893 9.00964C10.6047 8.83324 9.8995 7.11183 9.61029 6.41359Z" fill="#FFE8C6"/>
</svg>
